<?xml version="1.0" encoding="utf-8"?>
<!-- Generator: Adobe Illustrator 23.0.1, SVG Export Plug-In . SVG Version: 6.00 Build 0)  -->
<svg version="1.1" id="Layer_1" xmlns="http://www.w3.org/2000/svg" xmlns:xlink="http://www.w3.org/1999/xlink" x="0px" y="0px"
	 viewBox="0 0 751.3 140.7" style="enable-background:new 0 0 751.3 140.7;" xml:space="preserve">
<style type="text/css">
	.st0{fill:#FFFFFF;}
</style>
<g>
	<path class="st0" d="M643.8,47.6l10.5-25.7l10.5,25.7H643.8z M612.5,80.8h17.8l7.3-17.8h33.6l7.3,17.8h18.3l-34-79.9h-16.1
		L612.5,80.8z M582.1,80.8h17.5V1.5h-17.5V80.8z M511.3,80.8h57V65h-39.6V1.5h-17.5V80.8z M453.9,66.1c-14.1,0-24-11.3-24-24.9v-0.2
		c0-13.6,9.8-24.7,23.8-24.7c14.1,0,24,11.3,24,24.9v0.2C477.7,55,467.9,66.1,453.9,66.1 M453.6,82.2c24.5,0,42.3-18.5,42.3-41v-0.2
		c0-22.6-17.6-40.8-42.1-40.8c-24.5,0-42.3,18.5-42.3,41v0.2C411.6,63.9,429.1,82.2,453.6,82.2 M325.7,80.8h17.2V30.4l38.4,50.5
		h14.9V1.5H379v48.9L341.8,1.5h-16.1V80.8z M275.1,82.2c14.5,0,25.7-5.7,33.9-12.6V35.1h-34.5v15.1h17.6v11.3
		c-4.4,3.2-10.1,4.8-16.4,4.8c-14.1,0-24-10.7-24-25.2v-0.2c0-13.5,10.1-24.7,22.8-24.7c9.2,0,14.6,3,20.7,8.1l11-13.3
		C297.9,4,289.3,0.1,275,0.1c-24,0-41.6,18.5-41.6,41v0.2C233.4,64.8,250.4,82.2,275.1,82.2 M177.1,47.6l10.5-25.7l10.5,25.7H177.1z
		 M145.8,80.8h17.8l7.3-17.8h33.6l7.3,17.8h18.3l-34-79.9h-16.1L145.8,80.8z M54.3,80.8h17.1V29.4l22.1,33.6H94L116.4,29v51.8h17.3
		V1.5h-18.8L94,35L73.2,1.5H54.3V80.8z"/>
	<path class="st0" d="M577.8,112.1h-10.6v3.4l2.4,0.4l7.5,14.1v6.2l-3,0.6v3.4h11.6v-3.4l-3-0.6v-5.9l7.6-14.4l2.4-0.4v-3.4h-10.6
		v3.4l2.3,0.3L580,125h-0.1l-4.4-9.2l2.3-0.3V112.1z M554.9,112.1h-8.6v3.4l3,0.6V131l-0.1,0l-11.3-18.9h-5.6h-3v3.4l3,0.6v20.1
		l-3,0.6v3.4h11.6v-3.4l-3-0.6v-14.9l0.1,0l11.3,18.9h5.6v-24.1l3-0.6v-3.4H554.9z M506,118.6h0.1l3.2,9.9h-6.4L506,118.6z
		 M492.6,140.2h9.6v-3.4l-1.9-0.3l1.2-3.9h9.1l1.2,3.9l-2,0.3v3.4h9.6v-3.4l-2-0.3l-8.5-24.4h-5.8l-8.5,24.4l-2,0.3V140.2z
		 M472.6,116.4h4.7c1.6,0,2.8,0.4,3.6,1.3c0.8,0.9,1.2,2,1.2,3.3c0,1.3-0.4,2.4-1.2,3.3c-0.8,0.9-2,1.3-3.6,1.3h-4.7V116.4z
		 M467,112.1h-3v3.4l3,0.6v20.1l-3,0.6v3.4h11.6v-3.4l-3-0.6V130h4.7c3.2,0,5.7-0.8,7.6-2.4c1.9-1.6,2.8-3.8,2.8-6.5
		c0-2.7-0.9-4.8-2.8-6.5c-1.9-1.6-4.4-2.5-7.6-2.5H467z M445.5,131.8v4.4l-3,0.6v3.4h11.6v-3.4l-3-0.6v-20.1l3-0.6v-3.4h-10.4
		l-7.2,20.7h-0.1l-7.2-20.7h-7.3h-3v3.4l3,0.6v20.1l-3,0.6v3.4h11.6v-3.4l-3-0.6v-4.4l-0.5-12.3l0.1,0l7.5,20.7h3.8l7.5-20.8l0.1,0
		L445.5,131.8z M403.2,126.3c0,3-0.6,5.3-1.8,7.1c-1.2,1.8-3,2.7-5.4,2.7c-2.3,0-4.1-0.9-5.3-2.7c-1.2-1.8-1.8-4.2-1.8-7.1v-0.5
		c0-2.9,0.6-5.3,1.7-7.1c1.2-1.8,2.9-2.7,5.3-2.7c2.4,0,4.2,0.9,5.4,2.7c1.2,1.8,1.8,4.2,1.8,7.1V126.3z M408.8,125.9
		c0-4.1-1.2-7.5-3.5-10.2c-2.4-2.7-5.4-4-9.2-4c-3.8,0-6.9,1.3-9.2,4c-2.3,2.7-3.5,6.1-3.5,10.2v0.4c0,4.1,1.2,7.5,3.5,10.2
		c2.3,2.7,5.4,4,9.2,4c3.8,0,6.9-1.3,9.2-4c2.3-2.7,3.5-6.1,3.5-10.2V125.9z M372.6,116c-1.1-1.3-2.6-2.3-4.3-3.1
		c-1.7-0.8-3.7-1.2-5.9-1.2c-3.8,0-6.9,1.3-9.3,3.9c-2.4,2.6-3.6,6-3.6,10v0.9c0,4.1,1.2,7.4,3.6,10c2.4,2.6,5.5,3.9,9.3,3.9
		c2.2,0,4.1-0.4,5.9-1.2c1.8-0.8,3.2-1.8,4.3-3.1v-5.6h-4.2l-0.6,3.7c-0.5,0.6-1.2,1-2.1,1.3c-0.9,0.3-1.9,0.5-3,0.5
		c-2.4,0-4.2-0.9-5.6-2.7c-1.3-1.8-2-4.1-2-7v-1c0-2.9,0.7-5.2,2-6.9c1.3-1.8,3.2-2.7,5.6-2.7c1.1,0,2.1,0.2,3,0.5
		c0.8,0.3,1.5,0.8,2.1,1.3l0.6,3.7h4.2V116z M297.3,112.1v7.5h4.3l0.2-3.1h5.1v19.8l-3,0.6v3.4h11.6v-3.4l-3-0.6v-19.8h5.2l0.2,3.1
		h4.3v-7.5H297.3z M287.1,115.3c-1.2-1.1-2.7-2-4.5-2.6c-1.8-0.7-3.7-1-5.9-1c-2.9,0-5.3,0.8-7.3,2.2c-1.9,1.4-2.9,3.3-2.9,5.6
		c0,2.3,0.9,4.1,2.6,5.4c1.7,1.3,4.2,2.5,7.6,3.4c1.9,0.6,3.3,1.2,4,1.9c0.8,0.7,1.1,1.5,1.1,2.6c0,1.1-0.4,1.9-1.2,2.5
		c-0.8,0.6-2,0.9-3.5,0.9c-1.2,0-2.3-0.2-3.2-0.5c-1-0.3-1.7-0.7-2.3-1.2l-0.6-4h-4.4v5.9c1.2,1.2,2.7,2.2,4.5,2.9
		c1.8,0.7,3.8,1.1,6,1.1c3.1,0,5.6-0.7,7.5-2.1c1.9-1.4,2.9-3.3,2.9-5.7c0-2.3-0.8-4.2-2.4-5.6s-3.9-2.6-7-3.4
		c-2.2-0.7-3.7-1.3-4.6-1.9c-0.9-0.6-1.3-1.4-1.3-2.3c0-1,0.4-1.9,1.3-2.5c0.8-0.7,2-1,3.6-1c1.1,0,2.1,0.1,3,0.3
		c0.9,0.2,1.7,0.5,2.1,0.8l0.7,3.9h4.2V115.3z M236.3,112.1h-5.6h-3v3.4l3,0.6v14.7c0,3.1,1,5.6,3.1,7.3c2.1,1.7,4.8,2.6,8.1,2.6
		c3.4,0,6.1-0.9,8.2-2.6c2.1-1.7,3.1-4.1,3.1-7.3v-14.7l3-0.6v-3.4h-11.6v3.4l3,0.6v14.7c0,1.9-0.5,3.3-1.5,4.2
		c-1,0.9-2.4,1.4-4.1,1.4c-1.7,0-3.1-0.5-4.1-1.4c-1-0.9-1.5-2.3-1.5-4.2v-14.7l3-0.6v-3.4H236.3z M201.6,116.4h4
		c1.5,0,2.7,0.4,3.4,1.1c0.8,0.8,1.2,1.8,1.2,3c0,1.3-0.4,2.2-1.2,2.9c-0.8,0.7-2,1-3.5,1h-3.9V116.4z M196,112.1h-3v3.4l3,0.6v20.1
		l-3,0.6v3.4h11.6v-3.4l-3-0.6v-7.4h4.6c1.3,0,2.3,0.4,3.1,1.2c0.7,0.8,1.1,1.8,1.1,3.2v1.6c0,1.6,0.4,2.9,1.1,3.8
		c0.7,1,2,1.5,3.9,1.5h2.9v-3.4l-0.7-0.1c-0.6-0.1-1-0.3-1.2-0.6c-0.2-0.3-0.4-0.8-0.4-1.4v-1.4c0-1.7-0.4-3.1-1.1-4.2
		c-0.7-1.1-1.9-2-3.6-2.4c1.5-0.6,2.6-1.5,3.3-2.5c0.8-1,1.1-2.3,1.1-3.7c0-2.6-0.9-4.6-2.7-6c-1.8-1.5-4.3-2.2-7.5-2.2H196z
		 M158.3,112.1v7.5h4.3l0.2-3.1h5.1v19.8l-3,0.6v3.4h11.6v-3.4l-3-0.6v-19.8h5.2l0.2,3.1h4.3v-7.5H158.3z"/>
	<rect x="0" y="126.1" class="st0" width="136.5" height="3.8"/>
	<rect x="614.4" y="126.1" class="st0" width="136.5" height="3.8"/>
</g>
</svg>
